<?xml version="1.0" encoding="UTF-8" standalone="no"?>
<!DOCTYPE svg PUBLIC "-//W3C//DTD SVG 1.1//EN" "http://www.w3.org/Graphics/SVG/1.1/DTD/svg11.dtd">
<svg width="100%" height="100%" viewBox="0 0 976 788" version="1.1" xmlns="http://www.w3.org/2000/svg" xmlns:xlink="http://www.w3.org/1999/xlink" xml:space="preserve" xmlns:serif="http://www.serif.com/" style="fill-rule:evenodd;clip-rule:evenodd;stroke-linecap:round;stroke-linejoin:round;stroke-miterlimit:1.5;">
    <g transform="matrix(1,0,0,1,-52.4345,-146.039)">
        <g id="outlines">
            <g transform="matrix(1,0,0,1,-1.37236,39.2169)">
                <path d="M485.744,150.323C417.573,88.31 251.02,117.172 297.536,168.087C424.376,306.922 416.564,385.314 376.647,438.545C331.625,498.587 489.173,548.077 552.813,454.34C625.462,347.331 575.729,232.181 485.744,150.323Z" style="fill:none;stroke:rgb(20,20,20);stroke-width:16.6px;"/>
            </g>
            <g transform="matrix(1,0,0,1,-1.37236,39.2169)">
                <path d="M183.778,425.608C183.778,425.608 197.206,578.249 132.14,563.86C67.074,549.472 27.111,344.303 104.833,230.172C182.555,116.04 191.108,331.073 191.108,331.073C191.108,331.073 200.854,152.332 245.997,169.212C291.141,186.093 399.07,347.956 372.495,406.183C345.92,464.41 267.211,309.683 267.211,309.683C267.211,309.683 321.122,525.383 270.036,525.5C218.95,525.617 183.778,425.608 183.778,425.608Z" style="fill:none;stroke:rgb(20,20,20);stroke-width:16.6px;"/>
            </g>
            <g transform="matrix(1,0,0,1,-1.37236,39.2169)">
                <path d="M571.65,220.539C571.65,220.539 691.02,349.26 540,514.894C547.988,563.164 671.031,730.691 720.247,667.277C769.464,603.863 704.749,531.575 650.8,496.556C671.622,493.716 808.788,560.392 832.45,473.316C856.111,386.24 688.275,351.424 688.275,351.424C688.275,351.424 867.898,347.367 839.504,253.665C811.109,159.964 657.78,172.268 571.65,220.539Z" style="fill:none;stroke:rgb(20,20,20);stroke-width:16.6px;"/>
            </g>
            <g transform="matrix(0.795919,0,0,0.795919,34.3025,155.685)">
                <circle cx="230.805" cy="600.572" r="46.377" style="fill:none;stroke:rgb(20,20,20);stroke-width:20.94px;"/>
            </g>
            <g transform="matrix(1,0,0,1,-1.37236,39.2169)">
                <path d="M306.441,525.5C306.441,525.5 321.585,451.651 342.407,475.313C363.23,498.975 405.926,574.693 405.926,574.693C405.926,574.693 494.79,516.059 512.773,525.5C530.756,534.941 547.351,582.913 540,600.572C532.649,618.231 438.583,646.949 438.583,646.949C438.583,646.949 553.472,790.491 527.917,812.26C502.362,834.029 459.041,844.44 438.583,834.029C418.125,823.617 376.647,681.424 376.647,681.424C376.647,681.424 291.676,770.993 266.121,758.689C240.566,746.385 211.225,717.547 213.118,695.053C215.011,672.559 347.14,617.285 347.14,617.285L306.441,525.5Z" style="fill:none;stroke:rgb(20,20,20);stroke-width:16.67px;"/>
            </g>
            <g transform="matrix(0.851161,0,0,0.851161,72.4583,141.061)">
                <path d="M496.045,659.205L580.281,627.025L709.003,838.095C709.003,838.095 872.743,778.461 887.887,809.695C903.031,840.929 922.907,920.433 858.546,921.38C794.186,922.326 628.552,921.38 628.552,921.38L496.045,659.205Z" style="fill:none;stroke:rgb(20,20,20);stroke-width:19.58px;"/>
            </g>
            <g transform="matrix(0.99826,-0.0589732,0.0589732,0.99826,-10.8791,24.4951)">
                <path d="M889.875,678.447C1105.37,711.552 939.942,559.2 780.158,604.277C715.997,622.378 888.056,748.142 888.056,748.142C888.056,748.142 713.451,689.346 705.122,751.435C696.793,813.524 911.076,886.971 954.235,840.025C997.395,793.08 954.235,717.523 889.875,678.447Z" style="fill:none;stroke:rgb(20,20,20);stroke-width:16.67px;"/>
            </g>
        </g>
    </g>
</svg>
